<svg id="visual" viewBox="0 0 900 600" width="900" height="600" xmlns="http://www.w3.org/2000/svg" xmlns:xlink="http://www.w3.org/1999/xlink" version="1.1"><rect x="0" y="0" width="900" height="600" fill="#001220"></rect><path d="M0 398L21.5 405.7C43 413.3 86 428.7 128.8 427.8C171.7 427 214.3 410 257.2 407.3C300 404.7 343 416.3 385.8 415.8C428.7 415.3 471.3 402.7 514.2 397.5C557 392.3 600 394.7 642.8 403.7C685.7 412.7 728.3 428.3 771.2 424.8C814 421.3 857 398.7 878.5 387.3L900 376L900 601L878.5 601C857 601 814 601 771.2 601C728.3 601 685.7 601 642.8 601C600 601 557 601 514.2 601C471.3 601 428.7 601 385.8 601C343 601 300 601 257.2 601C214.3 601 171.7 601 128.8 601C86 601 43 601 21.5 601L0 601Z" fill="#69d7fa"></path><path d="M0 416L21.5 419.8C43 423.7 86 431.3 128.8 429.8C171.7 428.3 214.3 417.7 257.2 415.3C300 413 343 419 385.8 427.7C428.7 436.3 471.3 447.7 514.2 451.3C557 455 600 451 642.8 450.2C685.7 449.3 728.3 451.7 771.2 456C814 460.3 857 466.7 878.5 469.8L900 473L900 601L878.5 601C857 601 814 601 771.2 601C728.3 601 685.7 601 642.8 601C600 601 557 601 514.2 601C471.3 601 428.7 601 385.8 601C343 601 300 601 257.2 601C214.3 601 171.7 601 128.8 601C86 601 43 601 21.5 601L0 601Z" fill="#2bb8f6"></path><path d="M0 449L21.5 451.7C43 454.3 86 459.7 128.8 467.2C171.7 474.7 214.3 484.3 257.2 482.8C300 481.3 343 468.7 385.8 471.3C428.7 474 471.3 492 514.2 498.5C557 505 600 500 642.8 496.8C685.7 493.7 728.3 492.3 771.2 491.3C814 490.3 857 489.7 878.5 489.3L900 489L900 601L878.5 601C857 601 814 601 771.2 601C728.3 601 685.7 601 642.8 601C600 601 557 601 514.2 601C471.3 601 428.7 601 385.8 601C343 601 300 601 257.2 601C214.3 601 171.7 601 128.8 601C86 601 43 601 21.5 601L0 601Z" fill="#0097ee"></path><path d="M0 501L21.5 497.8C43 494.7 86 488.3 128.8 488.7C171.7 489 214.3 496 257.2 501.5C300 507 343 511 385.8 515C428.7 519 471.3 523 514.2 519.5C557 516 600 505 642.8 497.3C685.7 489.7 728.3 485.3 771.2 492.5C814 499.7 857 518.3 878.5 527.7L900 537L900 601L878.5 601C857 601 814 601 771.2 601C728.3 601 685.7 601 642.8 601C600 601 557 601 514.2 601C471.3 601 428.7 601 385.8 601C343 601 300 601 257.2 601C214.3 601 171.7 601 128.8 601C86 601 43 601 21.5 601L0 601Z" fill="#0073df"></path><path d="M0 549L21.5 548.7C43 548.3 86 547.7 128.8 545.5C171.7 543.3 214.3 539.7 257.2 538.7C300 537.7 343 539.3 385.8 540.5C428.7 541.7 471.3 542.3 514.2 546.3C557 550.3 600 557.7 642.8 555.2C685.7 552.7 728.3 540.3 771.2 534.2C814 528 857 528 878.5 528L900 528L900 601L878.5 601C857 601 814 601 771.2 601C728.3 601 685.7 601 642.8 601C600 601 557 601 514.2 601C471.3 601 428.7 601 385.8 601C343 601 300 601 257.2 601C214.3 601 171.7 601 128.8 601C86 601 43 601 21.5 601L0 601Z" fill="#244bc7"></path></svg>