<svg id="visual" viewBox="0 0 960 540" width="960" height="540" xmlns="http://www.w3.org/2000/svg" xmlns:xlink="http://www.w3.org/1999/xlink" version="1.1"><rect x="0" y="0" width="960" height="540" fill="#FFFFFF"></rect><path d="M0 358L22.8 365C45.7 372 91.3 386 137 385.3C182.7 384.7 228.3 369.3 274 366.8C319.7 364.3 365.3 374.7 411.2 374.2C457 373.7 503 362.3 548.8 357.7C594.7 353 640.3 355 686 363C731.7 371 777.3 385 823 381.8C868.7 378.7 914.3 358.3 937.2 348.2L960 338L960 541L937.2 541C914.3 541 868.7 541 823 541C777.3 541 731.7 541 686 541C640.3 541 594.7 541 548.8 541C503 541 457 541 411.2 541C365.3 541 319.7 541 274 541C228.3 541 182.7 541 137 541C91.3 541 45.7 541 22.8 541L0 541Z" fill="#69d7fa"></path><path d="M0 375L22.8 378.3C45.7 381.7 91.3 388.3 137 386.8C182.7 385.3 228.3 375.7 274 373.5C319.7 371.3 365.3 376.7 411.2 384.5C457 392.3 503 402.7 548.8 406C594.7 409.3 640.3 405.7 686 405C731.7 404.3 777.3 406.7 823 410.5C868.7 414.3 914.3 419.7 937.2 422.3L960 425L960 541L937.2 541C914.3 541 868.7 541 823 541C777.3 541 731.7 541 686 541C640.3 541 594.7 541 548.8 541C503 541 457 541 411.2 541C365.3 541 319.7 541 274 541C228.3 541 182.7 541 137 541C91.3 541 45.7 541 22.8 541L0 541Z" fill="#2bb8f6"></path><path d="M0 404L22.8 406.5C45.7 409 91.3 414 137 420.7C182.7 427.3 228.3 435.7 274 434.2C319.7 432.7 365.3 421.3 411.2 423.8C457 426.3 503 442.7 548.8 448.5C594.7 454.3 640.3 449.7 686 446.8C731.7 444 777.3 443 823 442.2C868.7 441.3 914.3 440.7 937.2 440.3L960 440L960 541L937.2 541C914.3 541 868.7 541 823 541C777.3 541 731.7 541 686 541C640.3 541 594.7 541 548.8 541C503 541 457 541 411.2 541C365.3 541 319.7 541 274 541C228.3 541 182.7 541 137 541C91.3 541 45.7 541 22.8 541L0 541Z" fill="#0097ee"></path><path d="M0 450L22.8 447.2C45.7 444.3 91.3 438.7 137 439.2C182.7 439.7 228.3 446.3 274 451.3C319.7 456.3 365.3 459.7 411.2 463.2C457 466.7 503 470.3 548.8 467.3C594.7 464.3 640.3 454.7 686 447.8C731.7 441 777.3 437 823 443.3C868.7 449.7 914.3 466.3 937.2 474.7L960 483L960 541L937.2 541C914.3 541 868.7 541 823 541C777.3 541 731.7 541 686 541C640.3 541 594.7 541 548.8 541C503 541 457 541 411.2 541C365.3 541 319.7 541 274 541C228.3 541 182.7 541 137 541C91.3 541 45.7 541 22.8 541L0 541Z" fill="#0073df"></path><path d="M0 494L22.8 493.7C45.7 493.3 91.3 492.7 137 490.7C182.7 488.7 228.3 485.3 274 484.3C319.7 483.3 365.3 484.7 411.2 485.8C457 487 503 488 548.8 491.7C594.7 495.3 640.3 501.7 686 499.3C731.7 497 777.3 486 823 480.5C868.7 475 914.3 475 937.2 475L960 475L960 541L937.2 541C914.3 541 868.7 541 823 541C777.3 541 731.7 541 686 541C640.3 541 594.7 541 548.8 541C503 541 457 541 411.2 541C365.3 541 319.7 541 274 541C228.3 541 182.7 541 137 541C91.3 541 45.7 541 22.8 541L0 541Z" fill="#244bc7"></path></svg>